<svg width="28" height="28" viewBox="0 0 28 28" fill="none" xmlns="http://www.w3.org/2000/svg">
<g id="Group 31">
<circle id="Ellipse 7" cx="14" cy="14" r="14" fill="#FC08C7"/>
<path id="Arrow 2" d="M8.59683 18.064C8.3812 18.2365 8.34624 18.5512 8.51875 18.7668C8.69125 18.9824 9.0059 19.0174 9.22153 18.8449L8.59683 18.064ZM18.9516 10.8733C18.9821 10.5989 18.7843 10.3517 18.5099 10.3212L14.0374 9.82422C13.7629 9.79373 13.5157 9.99149 13.4852 10.2659C13.4547 10.5404 13.6525 10.7876 13.9269 10.8181L17.9025 11.2598L17.4608 15.2354C17.4303 15.5098 17.628 15.757 17.9025 15.7875C18.1769 15.818 18.4241 15.6203 18.4546 15.3458L18.9516 10.8733ZM9.22153 18.8449L18.767 11.2085L18.1423 10.4277L8.59683 18.064L9.22153 18.8449Z" fill="white"/>
</g>
</svg>
